<?xml version="1.0" encoding="UTF-8"?>
<svg width="180px" height="180px" viewBox="0 0 180 180" version="1.1" xmlns="http://www.w3.org/2000/svg" xmlns:xlink="http://www.w3.org/1999/xlink">
    <!-- Generator: Sketch 43.2 (39069) - http://www.bohemiancoding.com/sketch -->
    <title>Logo</title>
    <desc>Created with Sketch.</desc>
    <defs></defs>
    <g id="Page-1" stroke="none" stroke-width="1" fill="none" fill-rule="evenodd">
        <g id="Logo">
            <g id="Group" transform="translate(7.000000, 5.000000)">
                <g id="logo" transform="translate(15.000000, 0.000000)">
                    <path d="M68.6868687,123.067604 C74.0358575,125.610743 79.8208678,127 85.8585859,127 C113.171577,127 135.313131,98.5700816 135.313131,63.5 C135.313131,28.4299184 113.171577,0 85.8585859,0 C79.8208678,0 74.0358575,1.38925744 68.6868687,3.93239587 C87.5352478,12.8937228 100.969697,36.1823927 100.969697,63.5 C100.969697,90.8176073 87.5352478,114.106277 68.6868687,123.067604 Z" id="Combined-Shape" fill="#1DADA6"></path>
                    <path d="M37.8533621,52.4072308 C41.8806548,23.4578657 61.3934774,1.26987917 85.1717003,0.0526476376 L85.1717172,0 L50.8282828,0 C26.6146159,0.417544218 6.54488135,22.5651434 2.23157938,51.7423523 C7.56565264,48.1592904 14.8361947,48.7055489 19.5252088,53.394563 C19.5348122,53.4041664 19.5443982,53.4137806 19.5539668,53.4234056 L19.5828095,53.394563 L19.6116514,53.4234049 C24.6232164,48.4406741 32.4980405,48.0966138 37.8533621,52.4072308 Z M2.17063461,74.8375486 C6.35255277,104.222011 26.4985385,126.580482 50.8282828,126.994164 L85.1717172,127 L85.1717172,126.947353 C61.1901545,125.719713 41.547266,103.161151 37.753456,73.8486739 L19.467608,92.134522 L2.17063461,74.8375486 Z" id="Combined-Shape" fill="#22CBC6"></path>
                    <path d="M24.0602936,78.1323595 L5.74379529,78.1323595 L5.74379529,59.9244742 C5.74379529,54.8965055 9.8440831,50.8205316 14.9020444,50.8205316 C19.9600058,50.8205316 24.0602936,54.8965055 24.0602936,59.9244742 C29.118255,59.9244742 33.2185428,64.0004482 33.2185428,69.0284169 C33.2185428,74.0563856 29.118255,78.1323595 24.0602936,78.1323595 Z" id="Combined-Shape" fill="#E12001" transform="translate(19.481169, 64.476446) rotate(-45.000000) translate(-19.481169, -64.476446) "></path>
                </g>
                <path d="M7.162,165.452 C5.03798938,164.179994 3.36400612,162.440011 2.14,160.232 C0.91599388,158.023989 0.304,155.588013 0.304,152.924 C0.304,150.283987 0.91599388,147.866011 2.14,145.67 C3.36400612,143.473989 5.03798938,141.734006 7.162,140.45 C9.28601062,139.165994 11.6319872,138.524 14.2,138.524 C16.0240091,138.524 17.6019933,138.763998 18.934,139.244 C20.2660067,139.724002 21.6159932,140.515994 22.984,141.62 C23.2720014,141.836001 23.4639995,142.057999 23.56,142.286 C23.6560005,142.514001 23.704,142.783998 23.704,143.096 C23.704,143.576002 23.5300017,143.971998 23.182,144.284 C22.8339983,144.596002 22.4320023,144.752 21.976,144.752 C21.5199977,144.752 21.1000019,144.596002 20.716,144.284 C19.7319951,143.443996 18.7720047,142.838002 17.836,142.466 C16.8999953,142.093998 15.6880074,141.908 14.2,141.908 C12.3279906,141.908 10.6060079,142.399995 9.034,143.384 C7.46199214,144.368005 6.21400462,145.705992 5.29,147.398 C4.36599538,149.090008 3.904,150.93199 3.904,152.924 C3.904,154.94001 4.36599538,156.787992 5.29,158.468 C6.21400462,160.148008 7.46199214,161.479995 9.034,162.464 C10.6060079,163.448005 12.3279906,163.94 14.2,163.94 C16.5040115,163.94 18.7119894,163.148008 20.824,161.564 C21.232002,161.275999 21.6279981,161.132 22.012,161.132 C22.4680023,161.132 22.8459985,161.293998 23.146,161.618 C23.4460015,161.942002 23.596,162.367997 23.596,162.896 C23.596,163.400003 23.4040019,163.843998 23.02,164.228 C20.427987,166.31601 17.4880164,167.36 14.2,167.36 C11.6319872,167.36 9.28601062,166.724006 7.162,165.452 Z M41.722,148.478 C43.2220075,149.354004 44.4099956,150.553992 45.286,152.078 C46.1620044,153.602008 46.6,155.299991 46.6,157.172 L46.6,165.2 C46.6,165.728003 46.4260017,166.165998 46.078,166.514 C45.7299983,166.862002 45.2920026,167.036 44.764,167.036 C44.2359974,167.036 43.7980017,166.862002 43.45,166.514 C43.1019983,166.165998 42.928,165.728003 42.928,165.2 L42.928,163.868 C42.0879958,164.900005 41.068006,165.703997 39.868,166.28 C38.667994,166.856003 37.372007,167.144 35.98,167.144 C34.2519914,167.144 32.686007,166.712004 31.282,165.848 C29.877993,164.983996 28.774004,163.790008 27.97,162.266 C27.165996,160.741992 26.764,159.044009 26.764,157.172 C26.764,155.299991 27.1959957,153.602008 28.06,152.078 C28.9240043,150.553992 30.1179924,149.354004 31.642,148.478 C33.1660076,147.601996 34.8519908,147.164 36.7,147.164 C38.5480092,147.164 40.2219925,147.601996 41.722,148.478 Z M39.958,163.022 C40.9300049,162.433997 41.6919972,161.630005 42.244,160.61 C42.7960028,159.589995 43.072,158.444006 43.072,157.172 C43.072,155.899994 42.7960028,154.748005 42.244,153.716 C41.6919972,152.683995 40.9300049,151.874003 39.958,151.286 C38.9859951,150.697997 37.900006,150.404 36.7,150.404 C35.499994,150.404 34.4140049,150.697997 33.442,151.286 C32.4699951,151.874003 31.7020028,152.683995 31.138,153.716 C30.5739972,154.748005 30.292,155.899994 30.292,157.172 C30.292,158.444006 30.5739972,159.589995 31.138,160.61 C31.7020028,161.630005 32.4699951,162.433997 33.442,163.022 C34.4140049,163.610003 35.499994,163.904 36.7,163.904 C37.900006,163.904 38.9859951,163.610003 39.958,163.022 Z M64.708,147.668 C65.4280036,148.052002 65.788,148.531997 65.788,149.108 C65.788,149.276001 65.7760001,149.396 65.752,149.468 C65.5359989,150.236004 65.0560037,150.62 64.312,150.62 C64.1919994,150.62 64.0120012,150.596 63.772,150.548 C62.8119952,150.379999 62.032003,150.296 61.432,150.296 C59.7039914,150.296 58.3120053,150.691996 57.256,151.484 C56.1999947,152.276004 55.672,153.343993 55.672,154.688 L55.672,165.2 C55.672,165.776003 55.5220015,166.219998 55.222,166.532 C54.9219985,166.844002 54.472003,167 53.872,167 C53.2959971,167 52.8520016,166.850002 52.54,166.55 C52.2279984,166.249999 52.072,165.800003 52.072,165.2 L52.072,149.108 C52.072,148.531997 52.2279984,148.088002 52.54,147.776 C52.8520016,147.463998 53.2959971,147.308 53.872,147.308 C55.072006,147.308 55.672,147.907994 55.672,149.108 L55.672,149.792 C56.3920036,148.951996 57.2799947,148.292002 58.336,147.812 C59.3920053,147.331998 60.519994,147.092 61.72,147.092 C62.9920064,147.092 63.9879964,147.283998 64.708,147.668 Z M85.336,157.982 C85.0239984,158.282002 84.6280024,158.432 84.148,158.432 L70.468,158.432 C70.7320013,160.112008 71.4939937,161.467995 72.754,162.5 C74.0140063,163.532005 75.5559909,164.048 77.38,164.048 C78.1000036,164.048 78.8499961,163.916001 79.63,163.652 C80.4100039,163.387999 81.0519975,163.064002 81.556,162.68 C81.8920017,162.415999 82.2879977,162.284 82.744,162.284 C83.2000023,162.284 83.5599987,162.403999 83.824,162.644 C84.2560022,163.004002 84.472,163.411998 84.472,163.868 C84.472,164.300002 84.2800019,164.659999 83.896,164.948 C83.0799959,165.596003 82.0660061,166.123998 80.854,166.532 C79.6419939,166.940002 78.4840055,167.144 77.38,167.144 C75.4119902,167.144 73.6480078,166.718004 72.088,165.866 C70.5279922,165.013996 69.3100044,163.832008 68.434,162.32 C67.5579956,160.807992 67.12,159.09201 67.12,157.172 C67.12,155.25199 67.5339959,153.530008 68.362,152.006 C69.1900041,150.481992 70.3419926,149.294004 71.818,148.442 C73.2940074,147.589996 74.9679906,147.164 76.84,147.164 C78.6880092,147.164 80.2839933,147.571996 81.628,148.388 C82.9720067,149.204004 84.0039964,150.343993 84.724,151.808 C85.4440036,153.272007 85.804,154.951991 85.804,156.848 C85.804,157.304002 85.6480016,157.681998 85.336,157.982 Z M72.574,151.7 C71.4819945,152.660005 70.7920014,153.943992 70.504,155.552 L82.492,155.552 C82.2759989,153.943992 81.6760049,152.660005 80.692,151.7 C79.7079951,150.739995 78.4240079,150.26 76.84,150.26 C75.0879912,150.26 73.6660055,150.739995 72.574,151.7 Z M103.714,148.478 C105.214007,149.354004 106.401996,150.553992 107.278,152.078 C108.154004,153.602008 108.592,155.299991 108.592,157.172 L108.592,165.2 C108.592,165.728003 108.418002,166.165998 108.07,166.514 C107.721998,166.862002 107.284003,167.036 106.756,167.036 C106.227997,167.036 105.790002,166.862002 105.442,166.514 C105.093998,166.165998 104.92,165.728003 104.92,165.2 L104.92,163.868 C104.079996,164.900005 103.060006,165.703997 101.86,166.28 C100.659994,166.856003 99.364007,167.144 97.972,167.144 C96.2439914,167.144 94.678007,166.712004 93.274,165.848 C91.869993,164.983996 90.766004,163.790008 89.962,162.266 C89.157996,160.741992 88.756,159.044009 88.756,157.172 C88.756,155.299991 89.1879957,153.602008 90.052,152.078 C90.9160043,150.553992 92.1099924,149.354004 93.634,148.478 C95.1580076,147.601996 96.8439908,147.164 98.692,147.164 C100.540009,147.164 102.213992,147.601996 103.714,148.478 Z M101.95,163.022 C102.922005,162.433997 103.683997,161.630005 104.236,160.61 C104.788003,159.589995 105.064,158.444006 105.064,157.172 C105.064,155.899994 104.788003,154.748005 104.236,153.716 C103.683997,152.683995 102.922005,151.874003 101.95,151.286 C100.977995,150.697997 99.892006,150.404 98.692,150.404 C97.491994,150.404 96.4060049,150.697997 95.434,151.286 C94.4619951,151.874003 93.6940028,152.683995 93.13,153.716 C92.5659972,154.748005 92.284,155.899994 92.284,157.172 C92.284,158.444006 92.5659972,159.589995 93.13,160.61 C93.6940028,161.630005 94.4619951,162.433997 95.434,163.022 C96.4060049,163.610003 97.491994,163.904 98.692,163.904 C99.892006,163.904 100.977995,163.610003 101.95,163.022 Z M129.382,148.46 C130.786007,149.324004 131.889996,150.517992 132.694,152.042 C133.498004,153.566008 133.9,155.263991 133.9,157.136 C133.9,159.008009 133.468004,160.705992 132.604,162.23 C131.739996,163.754008 130.546008,164.953996 129.022,165.83 C127.497992,166.706004 125.812009,167.144 123.964,167.144 C122.115991,167.144 120.442007,166.706004 118.942,165.83 C117.441992,164.953996 116.254004,163.754008 115.378,162.23 C114.501996,160.705992 114.064,159.008009 114.064,157.136 L114.064,140.72 C114.064,140.167997 114.237998,139.724002 114.586,139.388 C114.934002,139.051998 115.371997,138.884 115.9,138.884 C116.452003,138.884 116.895998,139.051998 117.232,139.388 C117.568002,139.724002 117.736,140.167997 117.736,140.72 L117.736,150.44 C118.576004,149.407995 119.595994,148.604003 120.796,148.028 C121.996006,147.451997 123.291993,147.164 124.684,147.164 C126.412009,147.164 127.977993,147.595996 129.382,148.46 Z M127.222,163.022 C128.194005,162.433997 128.961997,161.624005 129.526,160.592 C130.090003,159.559995 130.372,158.408006 130.372,157.136 C130.372,155.863994 130.090003,154.718005 129.526,153.698 C128.961997,152.677995 128.194005,151.874003 127.222,151.286 C126.249995,150.697997 125.164006,150.404 123.964,150.404 C122.763994,150.404 121.678005,150.697997 120.706,151.286 C119.733995,151.874003 118.972003,152.677995 118.42,153.698 C117.867997,154.718005 117.592,155.863994 117.592,157.136 C117.592,158.408006 117.867997,159.559995 118.42,160.592 C118.972003,161.624005 119.733995,162.433997 120.706,163.022 C121.678005,163.610003 122.763994,163.904 123.964,163.904 C125.164006,163.904 126.249995,163.610003 127.222,163.022 Z M141.262,166.154 C140.433996,165.589997 139.792002,164.798005 139.336,163.778 C138.879998,162.757995 138.652,161.612006 138.652,160.34 L138.652,140.684 C138.652,140.155997 138.819998,139.724002 139.156,139.388 C139.492002,139.051998 139.923997,138.884 140.452,138.884 C140.980003,138.884 141.411998,139.051998 141.748,139.388 C142.084002,139.724002 142.252,140.155997 142.252,140.684 L142.252,160.34 C142.252,161.228004 142.419998,161.959997 142.756,162.536 C143.092002,163.112003 143.523997,163.4 144.052,163.4 L144.952,163.4 C145.432002,163.4 145.821998,163.567998 146.122,163.904 C146.422001,164.240002 146.572,164.671997 146.572,165.2 C146.572,165.728003 146.344002,166.159998 145.888,166.496 C145.431998,166.832002 144.844004,167 144.124,167 L144.052,167 C143.019995,167 142.090004,166.718003 141.262,166.154 Z M166.3,157.982 C165.987998,158.282002 165.592002,158.432 165.112,158.432 L151.432,158.432 C151.696001,160.112008 152.457994,161.467995 153.718,162.5 C154.978006,163.532005 156.519991,164.048 158.344,164.048 C159.064004,164.048 159.813996,163.916001 160.594,163.652 C161.374004,163.387999 162.015997,163.064002 162.52,162.68 C162.856002,162.415999 163.251998,162.284 163.708,162.284 C164.164002,162.284 164.523999,162.403999 164.788,162.644 C165.220002,163.004002 165.436,163.411998 165.436,163.868 C165.436,164.300002 165.244002,164.659999 164.86,164.948 C164.043996,165.596003 163.030006,166.123998 161.818,166.532 C160.605994,166.940002 159.448006,167.144 158.344,167.144 C156.37599,167.144 154.612008,166.718004 153.052,165.866 C151.491992,165.013996 150.274004,163.832008 149.398,162.32 C148.521996,160.807992 148.084,159.09201 148.084,157.172 C148.084,155.25199 148.497996,153.530008 149.326,152.006 C150.154004,150.481992 151.305993,149.294004 152.782,148.442 C154.258007,147.589996 155.931991,147.164 157.804,147.164 C159.652009,147.164 161.247993,147.571996 162.592,148.388 C163.936007,149.204004 164.967996,150.343993 165.688,151.808 C166.408004,153.272007 166.768,154.951991 166.768,156.848 C166.768,157.304002 166.612002,157.681998 166.3,157.982 Z M153.538,151.7 C152.445995,152.660005 151.756001,153.943992 151.468,155.552 L163.456,155.552 C163.239999,153.943992 162.640005,152.660005 161.656,151.7 C160.671995,150.739995 159.388008,150.26 157.804,150.26 C156.051991,150.26 154.630005,150.739995 153.538,151.7 Z" id="Careable" fill="#FFFFFF"></path>
            </g>
        </g>
    </g>
</svg>